<?xml version="1.0" encoding="utf-8"?>
<svg viewBox="0 0 500 500" xmlns="http://www.w3.org/2000/svg">
  <path d="M 391.603 249.995 C 391.603 294.995 371.77 336.663 337.584 364.578 C 323.625 375.828 314.522 390.621 311.686 406.454 C 311.293 406.246 311.084 406.246 310.688 406.246 L 189.312 406.246 C 188.916 406.246 188.311 406.246 187.897 406.454 C 185.061 389.995 176.771 375.619 164.834 366.452 C 120.751 332.079 100.104 275.829 111.438 219.162 C 122.562 163.953 166.062 118.953 219.666 107.494 C 262.332 98.119 306.02 108.954 339.208 136.661 C 372.583 164.578 391.603 205.829 391.603 249.995 Z" fill="#ffc107" style=""/>
  <path d="M 308.771 408.036 C 308.188 411.413 307.792 414.787 307.792 418.37 L 307.792 462.535 C 307.792 481.619 292.418 497.349 273.749 497.349 L 225.145 497.349 C 208.813 497.349 191.105 484.621 191.105 456.766 L 191.105 421.577 C 191.105 416.994 190.73 412.411 189.75 408.036 C 190.125 407.827 190.73 407.827 191.105 407.827 L 307.792 407.827 C 308.188 407.827 308.396 407.827 308.771 408.036 Z" fill="#000000" style=""/>
  <path d="M 296.874 437.501 L 203.125 437.501 C 194.5 437.501 187.501 430.501 187.501 421.876 C 187.501 413.25 194.5 406.251 203.125 406.251 L 296.874 406.251 C 305.5 406.251 312.499 413.25 312.499 421.876 C 312.499 430.501 305.5 437.501 296.874 437.501 Z" fill="#ffffff" style=""/>
  <path d="M 250 72.023 C 241.374 72.023 234.375 65.021 234.375 56.398 L 234.375 15.625 C 234.375 7.002 241.374 0 250 0 C 258.626 0 265.625 7.002 265.625 15.625 L 265.625 56.398 C 265.625 65.021 258.626 72.023 250 72.023 Z" fill="#ffffff" style=""/>
  <path d="M 386.896 128.729 C 382.896 128.729 378.896 127.209 375.854 124.146 C 369.75 118.042 369.75 108.146 375.854 102.042 L 404.688 73.208 C 410.792 67.104 420.688 67.104 426.792 73.208 C 432.896 79.312 432.896 89.208 426.792 95.312 L 397.958 124.146 C 394.895 127.187 390.895 128.729 386.896 128.729 Z" fill="#ffffff" style=""/>
  <path d="M 484.375 265.625 L 443.605 265.625 C 434.979 265.625 427.98 258.626 427.98 250 C 427.98 241.377 434.979 234.375 443.605 234.375 L 484.375 234.375 C 493.001 234.375 500 241.377 500 250 C 500 258.626 493.001 265.625 484.375 265.625 Z" fill="#ffffff" style=""/>
  <path d="M 415.729 431.354 C 411.729 431.354 407.729 429.833 404.688 426.771 L 375.854 397.937 C 369.75 391.835 369.75 381.937 375.854 375.833 C 381.958 369.729 391.854 369.729 397.958 375.833 L 426.792 404.667 C 432.896 410.771 432.896 420.667 426.792 426.771 C 423.729 429.833 419.729 431.354 415.729 431.354 Z" fill="#ffffff" style=""/>
  <path d="M 84.271 431.354 C 80.271 431.354 76.271 429.833 73.229 426.771 C 67.125 420.667 67.125 410.771 73.229 404.667 L 102.063 375.833 C 108.167 369.729 118.063 369.729 124.167 375.833 C 130.271 381.937 130.271 391.835 124.167 397.937 L 95.333 426.771 C 92.27 429.833 88.271 431.354 84.271 431.354 Z" fill="#ffffff" style=""/>
  <path d="M 56.395 265.625 L 15.625 265.625 C 6.999 265.625 0 258.626 0 250 C 0 241.377 6.999 234.375 15.625 234.375 L 56.395 234.375 C 65.021 234.375 72.02 241.377 72.02 250 C 72.02 258.626 65.021 265.625 56.395 265.625 Z" fill="#ffffff" style=""/>
  <path d="M 113.104 128.729 C 109.105 128.729 105.105 127.209 102.063 124.146 L 73.229 95.312 C 67.125 89.208 67.125 79.312 73.229 73.208 C 79.333 67.104 89.229 67.104 95.333 73.208 L 124.167 102.042 C 130.271 108.146 130.271 118.042 124.167 124.146 C 121.083 127.187 117.104 128.729 113.104 128.729 Z" fill="#ffffff" style=""/>
  <path d="M 328.124 260.418 C 319.501 260.418 312.499 253.416 312.499 244.793 C 312.499 213.187 286.813 187.501 255.209 187.501 C 246.584 187.501 239.584 180.501 239.584 171.876 C 239.584 163.25 246.584 156.251 255.209 156.251 C 304.022 156.251 343.749 195.981 343.749 244.793 C 343.749 253.416 336.75 260.418 328.124 260.418 Z" fill="#ffffff" style=""/>
  <path d="M 276.04 500 L 223.959 500 C 206.397 500 187.501 486.667 187.501 457.418 L 187.501 420.667 C 187.501 398.563 178.083 378.273 162.313 366.397 C 116.793 332.127 95.729 275.75 107.333 219.27 C 118.689 163.939 163.459 119 218.729 107.439 C 262.686 98.187 307.647 108.896 341.938 136.771 C 376.187 164.605 395.833 205.877 395.833 250 C 395.833 294.96 375.521 336.689 340.103 364.543 C 322.561 378.333 312.499 397.544 312.499 417.229 L 312.499 463.541 C 312.499 483.646 296.146 500 276.04 500 Z M 249.71 135.459 C 241.541 135.459 233.314 136.312 225.084 138.023 C 181.832 147.063 146.812 182.231 137.917 225.544 C 128.772 270.063 145.313 314.479 181.082 341.418 C 204.646 359.168 218.729 388.791 218.729 420.667 L 218.729 457.418 C 218.729 459.314 218.98 468.75 223.938 468.75 L 276.022 468.75 C 278.895 468.75 281.229 466.416 281.229 463.541 L 281.229 417.229 C 281.229 387.875 295.647 359.73 320.771 339.96 C 348.625 318.083 364.583 285.292 364.583 250 C 364.583 215.334 349.124 182.896 322.207 161.022 C 301.624 144.315 276.104 135.459 249.71 135.459 Z" fill="#ffffff" style=""/>
</svg>