<?xml version="1.0" encoding="utf-8"?>
<svg viewBox="0 0 500 500" xmlns="http://www.w3.org/2000/svg">
  <path d="M 308.771 408.036 C 308.188 411.413 307.792 414.787 307.792 418.37 L 307.792 462.535 C 307.792 481.619 292.418 497.349 273.749 497.349 L 225.145 497.349 C 208.813 497.349 191.105 484.621 191.105 456.766 L 191.105 421.577 C 191.105 416.994 190.73 412.411 189.75 408.036 C 190.125 407.827 190.73 407.827 191.105 407.827 L 307.792 407.827 C 308.188 407.827 308.396 407.827 308.771 408.036 Z" fill="#000000" style=""/>
  <path d="M 296.874 437.501 L 203.125 437.501 C 194.5 437.501 187.501 430.501 187.501 421.876 C 187.501 413.25 194.5 406.251 203.125 406.251 L 296.874 406.251 C 305.5 406.251 312.499 413.25 312.499 421.876 C 312.499 430.501 305.5 437.501 296.874 437.501 Z" fill="#ffffff" style=""/>
  <path d="M 328.124 260.418 C 319.501 260.418 312.499 253.416 312.499 244.793 C 312.499 213.187 286.813 187.501 255.209 187.501 C 246.584 187.501 239.584 180.501 239.584 171.876 C 239.584 163.25 246.584 156.251 255.209 156.251 C 304.022 156.251 343.749 195.981 343.749 244.793 C 343.749 253.416 336.75 260.418 328.124 260.418 Z" fill="#ffffff" style=""/>
  <path d="M 276.04 500 L 223.959 500 C 206.397 500 187.501 486.667 187.501 457.418 L 187.501 420.667 C 187.501 398.563 178.083 378.273 162.313 366.397 C 116.793 332.127 95.729 275.75 107.333 219.27 C 118.689 163.939 163.459 119 218.729 107.439 C 262.686 98.187 307.647 108.896 341.938 136.771 C 376.187 164.605 395.833 205.877 395.833 250 C 395.833 294.96 375.521 336.689 340.103 364.543 C 322.561 378.333 312.499 397.544 312.499 417.229 L 312.499 463.541 C 312.499 483.646 296.146 500 276.04 500 Z M 249.71 135.459 C 241.541 135.459 233.314 136.312 225.084 138.023 C 181.832 147.063 146.812 182.231 137.917 225.544 C 128.772 270.063 145.313 314.479 181.082 341.418 C 204.646 359.168 218.729 388.791 218.729 420.667 L 218.729 457.418 C 218.729 459.314 218.98 468.75 223.938 468.75 L 276.022 468.75 C 278.895 468.75 281.229 466.416 281.229 463.541 L 281.229 417.229 C 281.229 387.875 295.647 359.73 320.771 339.96 C 348.625 318.083 364.583 285.292 364.583 250 C 364.583 215.334 349.124 182.896 322.207 161.022 C 301.624 144.315 276.104 135.459 249.71 135.459 Z" fill="#ffffff" style=""/>
</svg>